<svg xmlns="http://www.w3.org/2000/svg" xmlns:xlink="http://www.w3.org/1999/xlink" width="500" zoomAndPan="magnify" viewBox="0 0 375 374.999991" height="500" preserveAspectRatio="xMidYMid meet" version="1.0"><defs><g/><clipPath id="0ad6f6e827"><path d="M 72.21875 129.011719 L 171.21875 129.011719 L 171.21875 228.761719 L 72.21875 228.761719 Z M 72.21875 129.011719 " clip-rule="nonzero"/></clipPath><clipPath id="dffd6ae939"><path d="M 242 174.023438 L 278 174.023438 L 278 204.773438 L 242 204.773438 Z M 242 174.023438 " clip-rule="nonzero"/></clipPath><clipPath id="8d37c4a58b"><path d="M 127.980469 131.335938 L 164.425781 131.335938 L 164.425781 159 L 127.980469 159 Z M 127.980469 131.335938 " clip-rule="nonzero"/></clipPath><clipPath id="44b4eea6ee"><path d="M 232.617188 211.519531 L 240.867188 211.519531 L 240.867188 219.769531 L 232.617188 219.769531 Z M 232.617188 211.519531 " clip-rule="nonzero"/></clipPath></defs><rect x="-37.5" width="450" fill="#ffffff" y="-37.499999" height="449.999989" fill-opacity="1"/><rect x="-37.5" width="450" fill="#ffffff" y="-37.499999" height="449.999989" fill-opacity="1"/><rect x="-37.5" width="450" fill="#ffffff" y="-37.499999" height="449.999989" fill-opacity="1"/><g clip-path="url(#0ad6f6e827)"><path fill="#159bd7" d="M 121.054688 219.964844 C 121.054688 220.234375 121 220.492188 120.898438 220.742188 C 120.796875 220.988281 120.648438 221.210938 120.457031 221.398438 C 120.265625 221.589844 120.046875 221.734375 119.796875 221.839844 C 119.546875 221.941406 119.289062 221.992188 119.015625 221.992188 C 118.746094 221.992188 118.488281 221.941406 118.238281 221.839844 C 117.988281 221.734375 117.769531 221.589844 117.578125 221.398438 C 117.386719 221.207031 117.242188 220.988281 117.136719 220.738281 C 117.035156 220.492188 116.984375 220.234375 116.984375 219.964844 C 116.984375 219.695312 117.035156 219.4375 117.136719 219.1875 C 117.242188 218.9375 117.386719 218.71875 117.578125 218.53125 C 117.769531 218.339844 117.988281 218.191406 118.238281 218.089844 C 118.488281 217.988281 118.75 217.933594 119.019531 217.933594 C 119.289062 217.9375 119.546875 217.988281 119.796875 218.089844 C 120.046875 218.195312 120.265625 218.339844 120.457031 218.53125 C 120.648438 218.722656 120.796875 218.941406 120.898438 219.1875 C 121 219.4375 121.054688 219.695312 121.054688 219.964844 Z M 112.414062 217.933594 C 112.144531 217.933594 111.886719 217.988281 111.636719 218.089844 C 111.386719 218.191406 111.164062 218.339844 110.972656 218.527344 C 110.78125 218.71875 110.636719 218.9375 110.53125 219.1875 C 110.429688 219.4375 110.375 219.695312 110.375 219.964844 C 110.375 220.234375 110.429688 220.492188 110.53125 220.742188 C 110.632812 220.992188 110.78125 221.210938 110.972656 221.402344 C 111.164062 221.589844 111.382812 221.738281 111.632812 221.839844 C 111.882812 221.945312 112.144531 221.996094 112.414062 221.996094 C 112.683594 221.996094 112.941406 221.945312 113.191406 221.839844 C 113.441406 221.738281 113.664062 221.589844 113.855469 221.402344 C 114.042969 221.210938 114.191406 220.992188 114.296875 220.742188 C 114.398438 220.492188 114.449219 220.234375 114.449219 219.964844 C 114.449219 219.695312 114.398438 219.4375 114.296875 219.1875 C 114.191406 218.941406 114.042969 218.722656 113.855469 218.53125 C 113.664062 218.339844 113.441406 218.195312 113.195312 218.089844 C 112.945312 217.988281 112.683594 217.9375 112.414062 217.933594 Z M 171.195312 134.34375 L 171.195312 160.953125 C 171.195312 163.894531 168.894531 166.289062 166.070312 166.289062 L 145.433594 166.289062 L 138.285156 173.945312 C 138.035156 174.210938 137.730469 174.386719 137.371094 174.46875 C 137.011719 174.546875 136.660156 174.519531 136.316406 174.386719 C 135.976562 174.25 135.703125 174.03125 135.496094 173.726562 C 135.289062 173.421875 135.1875 173.085938 135.1875 172.722656 L 135.222656 166.363281 L 128.257812 166.289062 C 125.453125 166.289062 123.152344 163.894531 123.152344 160.953125 L 123.152344 134.34375 C 123.152344 131.402344 125.453125 129.011719 128.277344 129.011719 L 166.070312 129.011719 C 168.894531 129.011719 171.195312 131.402344 171.195312 134.34375 Z M 149.09375 155.054688 C 149.09375 154.820312 149.050781 154.59375 148.960938 154.375 C 148.867188 154.15625 148.738281 153.964844 148.570312 153.796875 C 148.402344 153.628906 148.210938 153.5 147.992188 153.410156 C 147.773438 153.320312 147.542969 153.273438 147.308594 153.273438 L 135.039062 153.273438 C 134.804688 153.273438 134.574219 153.320312 134.355469 153.410156 C 134.136719 153.5 133.945312 153.628906 133.777344 153.796875 C 133.609375 153.964844 133.480469 154.15625 133.390625 154.375 C 133.300781 154.59375 133.253906 154.820312 133.253906 155.054688 C 133.253906 155.292969 133.300781 155.519531 133.390625 155.738281 C 133.480469 155.957031 133.609375 156.148438 133.777344 156.316406 C 133.945312 156.480469 134.136719 156.609375 134.355469 156.703125 C 134.574219 156.792969 134.804688 156.835938 135.039062 156.835938 L 147.308594 156.835938 C 147.542969 156.835938 147.773438 156.792969 147.992188 156.703125 C 148.210938 156.609375 148.402344 156.480469 148.570312 156.316406 C 148.738281 156.148438 148.867188 155.957031 148.960938 155.738281 C 149.050781 155.519531 149.09375 155.292969 149.09375 155.054688 Z M 161.363281 147.25 C 161.363281 147.015625 161.316406 146.789062 161.226562 146.570312 C 161.136719 146.351562 161.007812 146.160156 160.839844 145.992188 C 160.671875 145.824219 160.476562 145.695312 160.257812 145.605469 C 160.039062 145.515625 159.8125 145.46875 159.574219 145.46875 L 135.039062 145.46875 C 134.804688 145.46875 134.574219 145.515625 134.355469 145.605469 C 134.136719 145.695312 133.945312 145.824219 133.777344 145.992188 C 133.609375 146.160156 133.480469 146.351562 133.390625 146.570312 C 133.300781 146.789062 133.253906 147.015625 133.253906 147.25 C 133.253906 147.488281 133.300781 147.714844 133.390625 147.933594 C 133.480469 148.152344 133.609375 148.34375 133.777344 148.511719 C 133.945312 148.679688 134.136719 148.808594 134.355469 148.898438 C 134.574219 148.988281 134.804688 149.03125 135.039062 149.03125 L 159.574219 149.03125 C 159.8125 149.03125 160.039062 148.988281 160.257812 148.898438 C 160.476562 148.808594 160.671875 148.679688 160.839844 148.511719 C 161.007812 148.34375 161.136719 148.152344 161.226562 147.933594 C 161.316406 147.714844 161.363281 147.488281 161.363281 147.25 Z M 161.363281 139.667969 C 161.363281 139.433594 161.316406 139.207031 161.226562 138.988281 C 161.136719 138.769531 161.007812 138.578125 160.839844 138.410156 C 160.671875 138.242188 160.476562 138.113281 160.257812 138.023438 C 160.039062 137.933594 159.8125 137.886719 159.574219 137.886719 L 135.039062 137.886719 C 134.804688 137.886719 134.574219 137.933594 134.355469 138.023438 C 134.136719 138.113281 133.945312 138.242188 133.777344 138.410156 C 133.609375 138.578125 133.480469 138.769531 133.390625 138.988281 C 133.300781 139.207031 133.253906 139.433594 133.253906 139.667969 C 133.253906 139.90625 133.300781 140.132812 133.390625 140.351562 C 133.480469 140.570312 133.609375 140.761719 133.777344 140.929688 C 133.945312 141.097656 134.136719 141.226562 134.355469 141.316406 C 134.574219 141.40625 134.804688 141.449219 135.039062 141.449219 L 159.574219 141.449219 C 159.8125 141.449219 160.039062 141.40625 160.257812 141.316406 C 160.476562 141.226562 160.671875 141.097656 160.839844 140.929688 C 161.007812 140.761719 161.136719 140.570312 161.226562 140.351562 C 161.316406 140.132812 161.363281 139.90625 161.363281 139.667969 Z M 105.460938 163.347656 C 104.6875 163.347656 103.921875 163.425781 103.167969 163.574219 C 102.410156 163.726562 101.675781 163.949219 100.960938 164.242188 C 100.25 164.539062 99.570312 164.898438 98.929688 165.328125 C 98.289062 165.753906 97.695312 166.242188 97.148438 166.785156 C 96.601562 167.328125 96.117188 167.917969 95.6875 168.558594 C 95.257812 169.199219 94.894531 169.875 94.597656 170.585938 C 94.304688 171.292969 94.078125 172.027344 93.929688 172.78125 C 93.777344 173.535156 93.703125 174.296875 93.699219 175.066406 L 93.699219 179.714844 C 93.703125 180.484375 93.777344 181.246094 93.929688 182 C 94.078125 182.753906 94.304688 183.488281 94.597656 184.199219 C 94.894531 184.910156 95.257812 185.585938 95.6875 186.222656 C 96.117188 186.863281 96.601562 187.453125 97.148438 188 C 97.695312 188.542969 98.289062 189.027344 98.929688 189.457031 C 99.570312 189.882812 100.25 190.246094 100.960938 190.539062 C 101.675781 190.835938 102.410156 191.058594 103.167969 191.207031 C 103.921875 191.359375 104.6875 191.433594 105.460938 191.433594 L 127.269531 191.433594 C 128.042969 191.433594 128.808594 191.359375 129.5625 191.210938 C 130.320312 191.0625 131.058594 190.839844 131.769531 190.542969 C 132.484375 190.25 133.160156 189.890625 133.804688 189.460938 C 134.445312 189.035156 135.039062 188.546875 135.585938 188.003906 C 136.132812 187.460938 136.621094 186.867188 137.046875 186.226562 C 137.476562 185.585938 137.839844 184.914062 138.136719 184.203125 C 138.429688 183.492188 138.652344 182.757812 138.804688 182.003906 C 138.953125 181.246094 139.03125 180.484375 139.027344 179.714844 C 139.027344 179.480469 138.984375 179.253906 138.894531 179.035156 C 138.800781 178.816406 138.671875 178.625 138.503906 178.457031 C 138.339844 178.289062 138.144531 178.160156 137.925781 178.070312 C 137.707031 177.980469 137.480469 177.933594 137.242188 177.933594 C 137.003906 177.933594 136.777344 177.980469 136.558594 178.070312 C 136.339844 178.160156 136.144531 178.289062 135.976562 178.457031 C 135.808594 178.625 135.679688 178.816406 135.589844 179.035156 C 135.5 179.253906 135.453125 179.480469 135.453125 179.714844 C 135.453125 180.25 135.402344 180.78125 135.296875 181.308594 C 135.191406 181.832031 135.039062 182.34375 134.832031 182.839844 C 134.628906 183.332031 134.375 183.804688 134.078125 184.25 C 133.777344 184.695312 133.4375 185.105469 133.058594 185.484375 C 132.679688 185.863281 132.265625 186.203125 131.816406 186.5 C 131.371094 186.796875 130.898438 187.046875 130.402344 187.253906 C 129.90625 187.457031 129.394531 187.613281 128.867188 187.714844 C 128.339844 187.820312 127.808594 187.871094 127.269531 187.871094 L 105.460938 187.871094 C 104.921875 187.871094 104.390625 187.820312 103.863281 187.714844 C 103.335938 187.609375 102.824219 187.453125 102.328125 187.25 C 101.832031 187.042969 101.363281 186.792969 100.914062 186.496094 C 100.46875 186.199219 100.054688 185.859375 99.675781 185.480469 C 99.296875 185.101562 98.957031 184.691406 98.65625 184.246094 C 98.359375 183.800781 98.105469 183.332031 97.902344 182.835938 C 97.695312 182.339844 97.539062 181.832031 97.433594 181.304688 C 97.328125 180.78125 97.277344 180.25 97.273438 179.714844 L 97.273438 175.066406 C 97.277344 174.53125 97.328125 174 97.433594 173.476562 C 97.539062 172.953125 97.695312 172.441406 97.902344 171.945312 C 98.105469 171.453125 98.359375 170.984375 98.65625 170.539062 C 98.957031 170.09375 99.296875 169.679688 99.675781 169.300781 C 100.054688 168.921875 100.46875 168.585938 100.914062 168.289062 C 101.363281 167.992188 101.832031 167.738281 102.328125 167.535156 C 102.824219 167.328125 103.335938 167.171875 103.863281 167.070312 C 104.390625 166.964844 104.921875 166.910156 105.460938 166.910156 L 117.820312 166.910156 C 118.058594 166.910156 118.285156 166.867188 118.503906 166.773438 C 118.722656 166.683594 118.917969 166.554688 119.082031 166.390625 C 119.25 166.222656 119.378906 166.027344 119.472656 165.8125 C 119.5625 165.59375 119.605469 165.367188 119.605469 165.128906 C 119.605469 164.894531 119.5625 164.664062 119.472656 164.449219 C 119.378906 164.230469 119.25 164.035156 119.082031 163.871094 C 118.917969 163.703125 118.722656 163.574219 118.503906 163.484375 C 118.285156 163.394531 118.058594 163.347656 117.820312 163.347656 Z M 107 171.988281 C 109.703125 171.988281 111.902344 174.242188 111.902344 177.015625 C 111.902344 179.785156 109.703125 182.042969 107 182.042969 C 104.296875 182.042969 102.09375 179.785156 102.09375 177.015625 C 102.09375 174.242188 104.296875 171.988281 107 171.988281 Z M 107 175.550781 C 106.265625 175.550781 105.671875 176.207031 105.671875 177.015625 C 105.671875 177.820312 106.265625 178.480469 107 178.480469 C 107.730469 178.480469 108.328125 177.820312 108.328125 177.015625 C 108.328125 176.207031 107.730469 175.550781 107 175.550781 Z M 118.679688 177.015625 C 118.679688 174.242188 120.878906 171.988281 123.582031 171.988281 C 126.289062 171.988281 128.488281 174.242188 128.488281 177.015625 C 128.488281 179.785156 126.289062 182.042969 123.582031 182.042969 C 120.878906 182.042969 118.679688 179.785156 118.679688 177.015625 Z M 122.253906 177.015625 C 122.253906 177.820312 122.851562 178.480469 123.582031 178.480469 C 124.316406 178.480469 124.914062 177.820312 124.914062 177.015625 C 124.914062 176.207031 124.316406 175.550781 123.582031 175.550781 C 122.851562 175.550781 122.253906 176.207031 122.253906 177.015625 Z M 155.488281 176.542969 L 155.488281 186.308594 C 155.488281 186.644531 155.453125 186.980469 155.386719 187.308594 C 155.324219 187.640625 155.226562 187.960938 155.09375 188.269531 C 154.964844 188.582031 154.808594 188.875 154.621094 189.15625 C 154.433594 189.433594 154.21875 189.695312 153.980469 189.933594 C 153.742188 190.171875 153.480469 190.382812 153.203125 190.570312 C 152.921875 190.757812 152.625 190.914062 152.3125 191.042969 C 152 191.171875 151.679688 191.269531 151.347656 191.335938 C 151.015625 191.402344 150.683594 191.433594 150.34375 191.433594 L 146.90625 191.433594 L 146.90625 195.421875 C 146.90625 195.90625 146.859375 196.386719 146.761719 196.863281 C 146.667969 197.339844 146.523438 197.804688 146.339844 198.25 C 146.152344 198.699219 145.921875 199.125 145.652344 199.53125 C 145.382812 199.933594 145.074219 200.308594 144.726562 200.652344 C 144.382812 200.996094 144.007812 201.300781 143.605469 201.570312 C 143.199219 201.84375 142.769531 202.070312 142.320312 202.257812 C 141.871094 202.441406 141.40625 202.582031 140.929688 202.679688 C 140.449219 202.773438 139.96875 202.820312 139.480469 202.820312 L 136.644531 202.820312 C 138.21875 203.832031 139.640625 205.019531 140.917969 206.386719 C 142.191406 207.75 143.277344 209.253906 144.171875 210.890625 C 145.066406 212.527344 145.746094 214.25 146.210938 216.054688 C 146.671875 217.863281 146.90625 219.699219 146.90625 221.566406 L 146.90625 226.980469 C 146.90625 227.214844 146.859375 227.441406 146.769531 227.660156 C 146.679688 227.878906 146.550781 228.070312 146.382812 228.238281 C 146.214844 228.40625 146.023438 228.535156 145.800781 228.625 C 145.582031 228.714844 145.355469 228.761719 145.117188 228.761719 L 87.609375 228.761719 C 87.375 228.761719 87.144531 228.714844 86.925781 228.625 C 86.707031 228.535156 86.515625 228.40625 86.347656 228.238281 C 86.179688 228.070312 86.050781 227.878906 85.960938 227.660156 C 85.867188 227.441406 85.824219 227.214844 85.824219 226.980469 L 85.824219 221.796875 C 85.824219 219.90625 86.058594 218.046875 86.53125 216.214844 C 87 214.386719 87.691406 212.640625 88.601562 210.980469 C 89.511719 209.324219 90.617188 207.804688 91.910156 206.421875 C 93.207031 205.042969 94.652344 203.839844 96.25 202.820312 L 93.25 202.820312 C 92.761719 202.820312 92.28125 202.773438 91.800781 202.679688 C 91.324219 202.582031 90.859375 202.441406 90.410156 202.257812 C 89.960938 202.070312 89.53125 201.84375 89.125 201.570312 C 88.722656 201.300781 88.347656 200.996094 88 200.652344 C 87.65625 200.308594 87.347656 199.933594 87.078125 199.53125 C 86.808594 199.125 86.578125 198.699219 86.390625 198.25 C 86.203125 197.804688 86.0625 197.339844 85.96875 196.863281 C 85.871094 196.386719 85.824219 195.90625 85.824219 195.421875 L 85.824219 191.433594 L 82.382812 191.433594 C 82.046875 191.433594 81.710938 191.402344 81.382812 191.335938 C 81.050781 191.269531 80.730469 191.171875 80.417969 191.042969 C 80.105469 190.914062 79.808594 190.757812 79.527344 190.570312 C 79.246094 190.382812 78.988281 190.171875 78.75 189.933594 C 78.511719 189.695312 78.296875 189.433594 78.109375 189.15625 C 77.921875 188.875 77.761719 188.582031 77.632812 188.269531 C 77.503906 187.960938 77.40625 187.640625 77.339844 187.308594 C 77.273438 186.980469 77.242188 186.644531 77.242188 186.308594 L 77.242188 159.488281 C 76.519531 159.273438 75.851562 158.949219 75.234375 158.519531 C 74.621094 158.089844 74.089844 157.570312 73.640625 156.96875 C 73.195312 156.363281 72.855469 155.703125 72.621094 154.992188 C 72.390625 154.277344 72.277344 153.546875 72.285156 152.796875 C 72.285156 148.96875 75.308594 145.851562 79.027344 145.851562 C 82.746094 145.851562 85.773438 148.96875 85.773438 152.796875 C 85.777344 153.546875 85.667969 154.277344 85.433594 154.992188 C 85.203125 155.703125 84.863281 156.363281 84.414062 156.96875 C 83.96875 157.570312 83.4375 158.089844 82.820312 158.519531 C 82.207031 158.949219 81.539062 159.273438 80.816406 159.488281 L 80.816406 171.621094 C 81.34375 171.445312 81.886719 171.359375 82.445312 171.359375 L 85.824219 171.359375 L 85.824219 166.546875 C 85.824219 165.539062 85.925781 164.542969 86.121094 163.554688 C 86.320312 162.570312 86.613281 161.609375 87 160.679688 C 87.386719 159.75 87.863281 158.867188 88.421875 158.027344 C 88.984375 157.191406 89.621094 156.417969 90.335938 155.707031 C 91.050781 154.992188 91.828125 154.359375 92.667969 153.796875 C 93.507812 153.238281 94.394531 152.765625 95.328125 152.378906 C 96.261719 151.992188 97.222656 151.703125 98.214844 151.503906 C 99.207031 151.308594 100.207031 151.207031 101.214844 151.207031 L 117.109375 151.207031 C 117.34375 151.207031 117.574219 151.253906 117.792969 151.34375 C 118.011719 151.433594 118.203125 151.5625 118.371094 151.730469 C 118.539062 151.894531 118.667969 152.089844 118.757812 152.308594 C 118.851562 152.527344 118.894531 152.753906 118.894531 152.988281 C 118.894531 153.226562 118.851562 153.453125 118.757812 153.671875 C 118.667969 153.890625 118.539062 154.082031 118.371094 154.25 C 118.203125 154.414062 118.011719 154.542969 117.792969 154.632812 C 117.574219 154.726562 117.34375 154.769531 117.109375 154.769531 L 101.214844 154.769531 C 100.441406 154.769531 99.671875 154.847656 98.910156 155 C 98.152344 155.148438 97.414062 155.375 96.695312 155.671875 C 95.980469 155.964844 95.296875 156.328125 94.652344 156.757812 C 94.007812 157.1875 93.414062 157.675781 92.863281 158.222656 C 92.316406 158.769531 91.824219 159.363281 91.394531 160.007812 C 90.964844 160.648438 90.597656 161.328125 90.300781 162.042969 C 90.003906 162.757812 89.78125 163.492188 89.628906 164.25 C 89.476562 165.007812 89.398438 165.773438 89.398438 166.546875 L 89.398438 195.421875 C 89.398438 195.929688 89.496094 196.417969 89.691406 196.890625 C 89.886719 197.359375 90.167969 197.773438 90.527344 198.132812 C 90.890625 198.492188 91.304688 198.769531 91.777344 198.964844 C 92.25 199.160156 92.738281 199.257812 93.25 199.257812 L 139.480469 199.257812 C 139.992188 199.257812 140.480469 199.160156 140.953125 198.964844 C 141.425781 198.769531 141.839844 198.492188 142.203125 198.132812 C 142.5625 197.773438 142.839844 197.359375 143.035156 196.890625 C 143.234375 196.417969 143.332031 195.929688 143.332031 195.421875 L 143.332031 173.140625 C 143.332031 172.902344 143.375 172.675781 143.46875 172.457031 C 143.558594 172.238281 143.6875 172.046875 143.855469 171.878906 C 144.023438 171.714844 144.214844 171.585938 144.433594 171.492188 C 144.652344 171.402344 144.882812 171.359375 145.117188 171.359375 L 150.285156 171.359375 C 150.628906 171.359375 150.964844 171.390625 151.300781 171.460938 C 151.636719 171.527344 151.960938 171.625 152.277344 171.753906 C 152.589844 171.886719 152.890625 172.042969 153.175781 172.234375 C 153.457031 172.421875 153.722656 172.636719 153.960938 172.878906 C 154.203125 173.121094 154.421875 173.382812 154.609375 173.664062 C 154.800781 173.945312 154.960938 174.246094 155.089844 174.558594 C 155.222656 174.875 155.320312 175.199219 155.386719 175.53125 C 155.453125 175.867188 155.488281 176.203125 155.488281 176.542969 Z M 79.027344 156.175781 C 80.777344 156.175781 82.199219 154.660156 82.199219 152.796875 C 82.199219 150.929688 80.777344 149.414062 79.027344 149.414062 C 77.28125 149.414062 75.859375 150.929688 75.859375 152.796875 C 75.859375 154.660156 77.28125 156.175781 79.027344 156.175781 Z M 85.824219 187.871094 L 85.824219 174.921875 L 82.445312 174.921875 C 82.226562 174.921875 82.019531 174.960938 81.820312 175.046875 C 81.621094 175.128906 81.445312 175.246094 81.292969 175.398438 C 81.140625 175.546875 81.023438 175.722656 80.941406 175.921875 C 80.859375 176.121094 80.816406 176.328125 80.816406 176.542969 L 80.816406 186.308594 C 80.816406 186.515625 80.855469 186.714844 80.9375 186.90625 C 81.015625 187.097656 81.128906 187.269531 81.277344 187.414062 C 81.421875 187.5625 81.59375 187.671875 81.785156 187.753906 C 81.976562 187.832031 82.175781 187.871094 82.382812 187.871094 Z M 108.441406 202.820312 C 106.179688 202.820312 103.992188 203.207031 101.871094 203.984375 L 106.09375 209.738281 C 106.417969 210.175781 106.851562 210.394531 107.394531 210.394531 L 123.835938 210.394531 C 124.34375 210.394531 124.757812 210.199219 125.082031 209.808594 L 130.148438 203.679688 C 128.320312 203.105469 126.441406 202.820312 124.523438 202.820312 Z M 133.574219 205.140625 L 127.839844 212.074219 C 127.347656 212.671875 126.75 213.136719 126.050781 213.464844 C 125.347656 213.796875 124.609375 213.960938 123.835938 213.957031 L 107.394531 213.957031 C 106.570312 213.957031 105.785156 213.769531 105.050781 213.394531 C 104.3125 213.023438 103.699219 212.503906 103.207031 211.839844 L 98.597656 205.558594 C 97.195312 206.402344 95.921875 207.414062 94.78125 208.585938 C 93.636719 209.757812 92.664062 211.054688 91.859375 212.476562 C 91.054688 213.898438 90.441406 215.398438 90.023438 216.980469 C 89.609375 218.558594 89.398438 220.164062 89.398438 221.796875 L 89.398438 225.199219 L 143.332031 225.199219 L 143.332031 221.566406 C 143.328125 219.886719 143.105469 218.238281 142.660156 216.617188 C 142.214844 215 141.5625 213.46875 140.707031 212.023438 C 139.847656 210.578125 138.8125 209.273438 137.601562 208.105469 C 136.394531 206.9375 135.050781 205.949219 133.574219 205.140625 Z M 151.914062 176.542969 C 151.914062 176.328125 151.871094 176.121094 151.789062 175.921875 C 151.707031 175.722656 151.589844 175.546875 151.4375 175.398438 C 151.285156 175.246094 151.109375 175.128906 150.910156 175.042969 C 150.710938 174.960938 150.5 174.921875 150.285156 174.921875 L 146.90625 174.921875 L 146.90625 187.871094 L 150.34375 187.871094 C 150.554688 187.871094 150.753906 187.832031 150.945312 187.753906 C 151.136719 187.671875 151.308594 187.5625 151.453125 187.414062 C 151.601562 187.269531 151.714844 187.097656 151.792969 186.90625 C 151.875 186.714844 151.914062 186.515625 151.914062 186.308594 Z M 126.699219 218.183594 C 126.460938 218.183594 126.234375 218.230469 126.015625 218.320312 C 125.796875 218.410156 125.601562 218.539062 125.4375 218.707031 C 125.269531 218.871094 125.140625 219.066406 125.046875 219.285156 C 124.957031 219.503906 124.914062 219.730469 124.914062 219.964844 C 124.914062 220.203125 124.957031 220.429688 125.046875 220.648438 C 125.140625 220.867188 125.269531 221.058594 125.4375 221.226562 C 125.601562 221.390625 125.796875 221.519531 126.015625 221.609375 C 126.234375 221.703125 126.460938 221.746094 126.699219 221.746094 L 133.867188 221.746094 C 134.105469 221.746094 134.332031 221.703125 134.550781 221.609375 C 134.769531 221.519531 134.964844 221.390625 135.128906 221.226562 C 135.296875 221.058594 135.425781 220.867188 135.519531 220.648438 C 135.609375 220.429688 135.652344 220.203125 135.652344 219.964844 C 135.652344 219.730469 135.609375 219.503906 135.519531 219.285156 C 135.425781 219.066406 135.296875 218.871094 135.128906 218.707031 C 134.964844 218.539062 134.769531 218.410156 134.550781 218.320312 C 134.332031 218.230469 134.105469 218.183594 133.867188 218.183594 Z M 104.96875 218.183594 L 97.800781 218.183594 C 97.5625 218.183594 97.335938 218.230469 97.117188 218.320312 C 96.898438 218.410156 96.703125 218.539062 96.539062 218.707031 C 96.371094 218.871094 96.242188 219.066406 96.148438 219.285156 C 96.058594 219.503906 96.015625 219.730469 96.015625 219.964844 C 96.015625 220.203125 96.058594 220.429688 96.148438 220.648438 C 96.242188 220.867188 96.371094 221.058594 96.539062 221.226562 C 96.703125 221.390625 96.898438 221.519531 97.117188 221.609375 C 97.335938 221.703125 97.5625 221.746094 97.800781 221.746094 L 104.96875 221.746094 C 105.207031 221.746094 105.433594 221.703125 105.652344 221.609375 C 105.871094 221.519531 106.066406 221.390625 106.230469 221.226562 C 106.398438 221.058594 106.527344 220.867188 106.621094 220.648438 C 106.710938 220.429688 106.753906 220.203125 106.753906 219.964844 C 106.753906 219.730469 106.710938 219.503906 106.621094 219.285156 C 106.527344 219.066406 106.398438 218.871094 106.230469 218.707031 C 106.066406 218.539062 105.871094 218.410156 105.652344 218.320312 C 105.433594 218.230469 105.207031 218.183594 104.96875 218.183594 Z M 104.96875 218.183594 " fill-opacity="1" fill-rule="nonzero"/></g><g clip-path="url(#dffd6ae939)"><path fill="#159bd7" d="M 244 200.398438 C 246.5625 204.429688 251.910156 204.753906 255.25 203.609375 C 257.84375 202.722656 259.707031 200.257812 260.035156 199.835938 C 260.359375 200.257812 262.152344 202.675781 264.746094 203.554688 C 268.085938 204.695312 273.503906 204.429688 276.066406 200.398438 C 277.082031 198.796875 280.285156 193.628906 273.347656 185.636719 C 273.347656 185.636719 266.785156 178.078125 260.726562 174.421875 C 260.449219 174.257812 260.097656 174.039062 260.070312 174.054688 C 260.039062 174.039062 259.652344 174.253906 259.375 174.421875 C 253.316406 178.078125 246.71875 185.636719 246.71875 185.636719 C 239.785156 193.628906 242.984375 198.796875 244 200.398438 Z M 244 200.398438 " fill-opacity="1" fill-rule="nonzero"/></g><path fill="#ffffff" d="M 261.140625 181.578125 C 261.382812 181.578125 261.601562 181.726562 261.6875 181.960938 L 265.832031 193 L 267.402344 187.976562 C 267.476562 187.738281 267.703125 187.554688 267.957031 187.554688 L 272.40625 187.554688 C 272.734375 187.554688 272.996094 187.828125 272.996094 188.152344 C 272.996094 188.476562 272.734375 188.75 272.40625 188.75 L 268.390625 188.75 L 266.441406 194.972656 C 266.363281 195.210938 266.148438 195.375 265.894531 195.382812 C 265.640625 195.390625 265.421875 195.234375 265.332031 195 L 261.234375 184.09375 L 259.078125 192.339844 C 259.015625 192.578125 258.8125 192.746094 258.570312 192.769531 C 258.332031 192.789062 258.097656 192.664062 257.992188 192.4375 L 256.277344 188.835938 L 254.390625 196.382812 C 254.328125 196.628906 254.109375 196.8125 253.851562 196.820312 C 253.597656 196.832031 253.359375 196.671875 253.273438 196.429688 L 251.890625 192.507812 L 246.527344 192.492188 C 246.203125 192.492188 245.949219 192.273438 245.949219 191.957031 C 245.949219 191.632812 246.210938 191.421875 246.535156 191.421875 L 252.3125 191.394531 C 252.5625 191.394531 252.78125 191.527344 252.863281 191.761719 L 253.742188 194.234375 L 255.554688 186.992188 C 255.613281 186.75 255.816406 186.574219 256.0625 186.546875 C 256.3125 186.527344 256.542969 186.652344 256.648438 186.878906 L 258.378906 190.5 L 260.597656 182.015625 C 260.664062 181.769531 260.882812 181.59375 261.136719 181.578125 C 261.121094 181.578125 261.128906 181.578125 261.140625 181.578125 Z M 261.140625 181.578125 " fill-opacity="1" fill-rule="nonzero"/><path fill="#ffffff" d="M 271.207031 188.28125 C 271.207031 188.113281 271.238281 187.953125 271.304688 187.796875 C 271.367188 187.644531 271.460938 187.507812 271.578125 187.386719 C 271.695312 187.269531 271.832031 187.179688 271.988281 187.113281 C 272.144531 187.050781 272.304688 187.019531 272.472656 187.019531 C 272.640625 187.019531 272.800781 187.050781 272.957031 187.113281 C 273.109375 187.179688 273.246094 187.269531 273.367188 187.386719 C 273.484375 187.507812 273.574219 187.644531 273.640625 187.796875 C 273.703125 187.953125 273.734375 188.113281 273.734375 188.28125 C 273.734375 188.445312 273.703125 188.609375 273.640625 188.761719 C 273.574219 188.917969 273.484375 189.054688 273.367188 189.171875 C 273.246094 189.289062 273.109375 189.382812 272.957031 189.445312 C 272.800781 189.507812 272.640625 189.539062 272.472656 189.539062 C 272.304688 189.539062 272.144531 189.507812 271.988281 189.445312 C 271.832031 189.382812 271.695312 189.289062 271.578125 189.171875 C 271.460938 189.054688 271.367188 188.917969 271.304688 188.761719 C 271.238281 188.609375 271.207031 188.445312 271.207031 188.28125 Z M 271.207031 188.28125 " fill-opacity="1" fill-rule="nonzero"/><path fill="#ffffff" d="M 244.714844 191.9375 C 244.714844 191.769531 244.746094 191.609375 244.808594 191.453125 C 244.875 191.300781 244.964844 191.164062 245.082031 191.042969 C 245.203125 190.925781 245.339844 190.835938 245.492188 190.769531 C 245.648438 190.707031 245.808594 190.675781 245.976562 190.675781 C 246.144531 190.675781 246.308594 190.707031 246.460938 190.769531 C 246.617188 190.835938 246.753906 190.925781 246.871094 191.042969 C 246.992188 191.164062 247.082031 191.300781 247.144531 191.453125 C 247.210938 191.609375 247.242188 191.769531 247.242188 191.9375 C 247.242188 192.105469 247.210938 192.265625 247.144531 192.417969 C 247.082031 192.574219 246.992188 192.710938 246.871094 192.828125 C 246.753906 192.945312 246.617188 193.039062 246.460938 193.101562 C 246.308594 193.164062 246.144531 193.199219 245.976562 193.199219 C 245.808594 193.199219 245.648438 193.164062 245.492188 193.101562 C 245.339844 193.039062 245.203125 192.945312 245.082031 192.828125 C 244.964844 192.710938 244.875 192.574219 244.808594 192.417969 C 244.746094 192.265625 244.714844 192.105469 244.714844 191.9375 Z M 244.714844 191.9375 " fill-opacity="1" fill-rule="nonzero"/><g clip-path="url(#8d37c4a58b)"><path fill="#159bd7" d="M 127.980469 131.335938 L 164.308594 131.335938 L 164.308594 158.875 L 127.980469 158.875 Z M 127.980469 131.335938 " fill-opacity="1" fill-rule="nonzero"/></g><g fill="#159bd7" fill-opacity="1"><g transform="translate(160.714564, 223.110312)"><g><path d="M 10.859375 -0.71875 L 10.859375 0 L 6.328125 0 L 6.25 -0.453125 C 6.519531 -0.628906 6.914062 -0.816406 7.4375 -1.015625 L 7.4375 -3.96875 L 3.671875 -3.96875 L 3.671875 -0.890625 L 4.96875 -0.71875 L 4.953125 0 L 0.453125 0 L 0.359375 -0.453125 C 0.628906 -0.628906 1.023438 -0.816406 1.546875 -1.015625 L 1.546875 -8.328125 L 0.46875 -8.484375 L 0.484375 -9.203125 L 4.765625 -9.203125 L 4.859375 -8.75 C 4.503906 -8.550781 4.109375 -8.363281 3.671875 -8.1875 L 3.671875 -5.171875 L 7.4375 -5.171875 L 7.4375 -8.328125 L 6.359375 -8.484375 L 6.375 -9.203125 L 10.671875 -9.203125 L 10.75 -8.75 C 10.457031 -8.5625 10.0625 -8.375 9.5625 -8.1875 L 9.5625 -0.890625 Z M 10.859375 -0.71875 "/></g></g></g><g fill="#159bd7" fill-opacity="1"><g transform="translate(171.947934, 223.110312)"><g><path d="M 5.703125 -3.328125 L 2.140625 -3.375 C 2.179688 -2.675781 2.394531 -2.132812 2.78125 -1.75 C 3.175781 -1.375 3.675781 -1.1875 4.28125 -1.1875 C 4.78125 -1.1875 5.375 -1.351562 6.0625 -1.6875 L 6.359375 -0.953125 L 4.171875 0.1875 L 3.71875 0.203125 C 2.695312 0.203125 1.851562 -0.117188 1.1875 -0.765625 C 0.53125 -1.410156 0.203125 -2.234375 0.203125 -3.234375 C 0.203125 -4.273438 0.535156 -5.148438 1.203125 -5.859375 C 1.867188 -6.578125 2.6875 -6.9375 3.65625 -6.9375 C 4.488281 -6.9375 5.171875 -6.675781 5.703125 -6.15625 C 6.242188 -5.644531 6.515625 -4.972656 6.515625 -4.140625 Z M 3.15625 -5.875 C 2.675781 -5.59375 2.363281 -5.078125 2.21875 -4.328125 L 4.640625 -4.46875 C 4.578125 -4.863281 4.40625 -5.195312 4.125 -5.46875 C 3.851562 -5.738281 3.53125 -5.875 3.15625 -5.875 Z M 3.15625 -5.875 "/></g></g></g><g fill="#159bd7" fill-opacity="1"><g transform="translate(178.718735, 223.110312)"><g><path d="M 7.484375 -0.671875 L 5.78125 0.21875 C 5.550781 0.207031 5.316406 0.109375 5.078125 -0.078125 C 4.835938 -0.265625 4.644531 -0.5 4.5 -0.78125 L 2.984375 0.1875 L 2.546875 0.203125 C 1.960938 0.203125 1.476562 0.03125 1.09375 -0.3125 C 0.707031 -0.65625 0.515625 -1.066406 0.515625 -1.546875 C 0.515625 -2.222656 0.878906 -2.753906 1.609375 -3.140625 L 4.28125 -3.21875 L 4.28125 -4.46875 C 4.28125 -5.207031 4.0625 -5.679688 3.625 -5.890625 C 3.195312 -5.859375 2.847656 -5.796875 2.578125 -5.703125 L 2.328125 -4.203125 L 1.140625 -4.15625 C 0.941406 -4.664062 0.84375 -5.226562 0.84375 -5.84375 L 0.859375 -6.125 C 1.367188 -6.34375 1.984375 -6.539062 2.703125 -6.71875 C 3.421875 -6.894531 3.960938 -6.984375 4.328125 -6.984375 C 4.679688 -6.984375 5.019531 -6.890625 5.34375 -6.703125 C 5.675781 -6.515625 5.945312 -6.269531 6.15625 -5.96875 C 6.257812 -5.789062 6.316406 -5.4375 6.328125 -4.90625 L 6.328125 -1.546875 C 6.328125 -1.328125 6.441406 -1.21875 6.671875 -1.21875 L 7.359375 -1.296875 Z M 2.84375 -1.03125 C 3.207031 -1.039062 3.6875 -1.160156 4.28125 -1.390625 L 4.28125 -2.390625 L 3.921875 -2.40625 C 3.003906 -2.40625 2.546875 -2.15625 2.546875 -1.65625 C 2.546875 -1.394531 2.644531 -1.1875 2.84375 -1.03125 Z M 2.84375 -1.03125 "/></g></g></g><g fill="#159bd7" fill-opacity="1"><g transform="translate(186.328892, 223.110312)"><g><path d="M 3.296875 -1.109375 C 3.734375 -0.960938 4.078125 -0.820312 4.328125 -0.6875 L 4.265625 0 L 0.25 0 L 0.203125 -0.46875 C 0.484375 -0.632812 0.835938 -0.789062 1.265625 -0.9375 L 1.265625 -9.015625 L 0.21875 -9.125 L 0.125 -9.796875 C 0.925781 -10.109375 1.753906 -10.273438 2.609375 -10.296875 L 3.296875 -9.671875 Z M 3.296875 -1.109375 "/></g></g></g><g fill="#159bd7" fill-opacity="1"><g transform="translate(191.001302, 223.110312)"><g><path d="M 3.671875 -1.359375 C 3.929688 -1.359375 4.328125 -1.414062 4.859375 -1.53125 L 5 -0.859375 L 2.859375 0.21875 C 2.453125 0.238281 2.066406 0.109375 1.703125 -0.171875 C 1.335938 -0.460938 1.148438 -0.789062 1.140625 -1.15625 L 1.140625 -5.203125 L 0.171875 -5.1875 L 0.109375 -5.921875 C 0.460938 -6.171875 0.84375 -6.394531 1.25 -6.59375 L 1.9375 -8.40625 L 2.890625 -8.40625 L 3.125 -6.59375 L 5.046875 -6.59375 L 5.078125 -5.984375 L 4.390625 -5.171875 L 3.171875 -5.171875 L 3.171875 -2 C 3.171875 -1.757812 3.207031 -1.59375 3.28125 -1.5 C 3.351562 -1.40625 3.484375 -1.359375 3.671875 -1.359375 Z M 3.671875 -1.359375 "/></g></g></g><g fill="#159bd7" fill-opacity="1"><g transform="translate(196.345197, 223.110312)"><g><path d="M 7.53125 -1.09375 C 7.894531 -0.988281 8.226562 -0.851562 8.53125 -0.6875 L 8.46875 0 L 4.765625 0 L 4.734375 -0.46875 L 5.5 -0.828125 L 5.5 -4.046875 C 5.5 -4.953125 5.195312 -5.40625 4.59375 -5.40625 C 4.28125 -5.40625 3.847656 -5.25 3.296875 -4.9375 L 3.296875 -1.0625 C 3.628906 -0.957031 3.914062 -0.832031 4.15625 -0.6875 L 4.09375 0 L 0.28125 0 L 0.234375 -0.46875 C 0.492188 -0.625 0.835938 -0.773438 1.265625 -0.921875 L 1.265625 -9.015625 L 0.21875 -9.125 L 0.125 -9.796875 C 0.925781 -10.109375 1.753906 -10.273438 2.609375 -10.296875 L 3.296875 -9.671875 L 3.296875 -5.609375 C 4.222656 -6.285156 5.003906 -6.703125 5.640625 -6.859375 C 6.066406 -6.835938 6.460938 -6.695312 6.828125 -6.4375 C 7.203125 -6.175781 7.421875 -5.835938 7.484375 -5.421875 L 7.53125 -4.625 Z M 7.53125 -1.09375 "/></g></g></g><g fill="#159bd7" fill-opacity="1"><g transform="translate(205.046515, 223.110312)"><g><path d="M 4.0625 0.203125 L 3.625 0.21875 C 2.632812 0.21875 1.816406 -0.109375 1.171875 -0.765625 C 0.523438 -1.429688 0.203125 -2.28125 0.203125 -3.3125 C 0.203125 -4.375 0.523438 -5.242188 1.171875 -5.921875 C 1.816406 -6.597656 2.632812 -6.9375 3.625 -6.9375 C 4.1875 -6.9375 4.695312 -6.804688 5.15625 -6.546875 C 5.625 -6.285156 5.96875 -5.910156 6.1875 -5.421875 L 4.65625 -4.375 C 4.101562 -5.125 3.523438 -5.597656 2.921875 -5.796875 C 2.429688 -5.265625 2.1875 -4.550781 2.1875 -3.65625 C 2.1875 -2.925781 2.363281 -2.328125 2.71875 -1.859375 C 3.082031 -1.398438 3.585938 -1.171875 4.234375 -1.171875 C 4.710938 -1.171875 5.21875 -1.296875 5.75 -1.546875 L 6.046875 -0.859375 Z M 4.0625 0.203125 "/></g></g></g><g fill="#159bd7" fill-opacity="1"><g transform="translate(211.299709, 223.110312)"><g><path d="M 7.484375 -0.671875 L 5.78125 0.21875 C 5.550781 0.207031 5.316406 0.109375 5.078125 -0.078125 C 4.835938 -0.265625 4.644531 -0.5 4.5 -0.78125 L 2.984375 0.1875 L 2.546875 0.203125 C 1.960938 0.203125 1.476562 0.03125 1.09375 -0.3125 C 0.707031 -0.65625 0.515625 -1.066406 0.515625 -1.546875 C 0.515625 -2.222656 0.878906 -2.753906 1.609375 -3.140625 L 4.28125 -3.21875 L 4.28125 -4.46875 C 4.28125 -5.207031 4.0625 -5.679688 3.625 -5.890625 C 3.195312 -5.859375 2.847656 -5.796875 2.578125 -5.703125 L 2.328125 -4.203125 L 1.140625 -4.15625 C 0.941406 -4.664062 0.84375 -5.226562 0.84375 -5.84375 L 0.859375 -6.125 C 1.367188 -6.34375 1.984375 -6.539062 2.703125 -6.71875 C 3.421875 -6.894531 3.960938 -6.984375 4.328125 -6.984375 C 4.679688 -6.984375 5.019531 -6.890625 5.34375 -6.703125 C 5.675781 -6.515625 5.945312 -6.269531 6.15625 -5.96875 C 6.257812 -5.789062 6.316406 -5.4375 6.328125 -4.90625 L 6.328125 -1.546875 C 6.328125 -1.328125 6.441406 -1.21875 6.671875 -1.21875 L 7.359375 -1.296875 Z M 2.84375 -1.03125 C 3.207031 -1.039062 3.6875 -1.160156 4.28125 -1.390625 L 4.28125 -2.390625 L 3.921875 -2.40625 C 3.003906 -2.40625 2.546875 -2.15625 2.546875 -1.65625 C 2.546875 -1.394531 2.644531 -1.1875 2.84375 -1.03125 Z M 2.84375 -1.03125 "/></g></g></g><g fill="#159bd7" fill-opacity="1"><g transform="translate(218.909865, 223.110312)"><g><path d="M 4.703125 -6.71875 C 4.921875 -6.800781 5.148438 -6.84375 5.390625 -6.84375 C 5.878906 -6.84375 6.273438 -6.703125 6.578125 -6.421875 C 6.523438 -5.390625 6.351562 -4.507812 6.0625 -3.78125 L 5 -3.78125 L 4.71875 -5.34375 C 4.195312 -4.957031 3.722656 -4.503906 3.296875 -3.984375 L 3.296875 -1.15625 C 3.953125 -1.03125 4.457031 -0.875 4.8125 -0.6875 L 4.75 0 L 0.28125 0 L 0.234375 -0.46875 C 0.492188 -0.625 0.835938 -0.773438 1.265625 -0.921875 L 1.265625 -5.625 L 0.21875 -5.75 L 0.125 -6.421875 C 0.925781 -6.722656 1.753906 -6.882812 2.609375 -6.90625 L 3.296875 -6.296875 L 3.296875 -5.140625 Z M 4.703125 -6.71875 "/></g></g></g><g fill="#159bd7" fill-opacity="1"><g transform="translate(225.512791, 223.110312)"><g><path d="M 5.703125 -3.328125 L 2.140625 -3.375 C 2.179688 -2.675781 2.394531 -2.132812 2.78125 -1.75 C 3.175781 -1.375 3.675781 -1.1875 4.28125 -1.1875 C 4.78125 -1.1875 5.375 -1.351562 6.0625 -1.6875 L 6.359375 -0.953125 L 4.171875 0.1875 L 3.71875 0.203125 C 2.695312 0.203125 1.851562 -0.117188 1.1875 -0.765625 C 0.53125 -1.410156 0.203125 -2.234375 0.203125 -3.234375 C 0.203125 -4.273438 0.535156 -5.148438 1.203125 -5.859375 C 1.867188 -6.578125 2.6875 -6.9375 3.65625 -6.9375 C 4.488281 -6.9375 5.171875 -6.675781 5.703125 -6.15625 C 6.242188 -5.644531 6.515625 -4.972656 6.515625 -4.140625 Z M 3.15625 -5.875 C 2.675781 -5.59375 2.363281 -5.078125 2.21875 -4.328125 L 4.640625 -4.46875 C 4.578125 -4.863281 4.40625 -5.195312 4.125 -5.46875 C 3.851562 -5.738281 3.53125 -5.875 3.15625 -5.875 Z M 3.15625 -5.875 "/></g></g></g><g fill="#159bd7" fill-opacity="1"><g transform="translate(232.279289, 223.110312)"><g/></g></g><g fill="#159bd7" fill-opacity="1"><g transform="translate(235.986443, 223.110312)"><g/></g></g><g fill="#159bd7" fill-opacity="1"><g transform="translate(239.693598, 223.110312)"><g/></g></g><g fill="#159bd7" fill-opacity="1"><g transform="translate(243.395735, 223.110312)"><g><path d="M 10.15625 -0.71875 L 10.140625 0 L 5.734375 0 L 5.65625 -0.453125 C 5.914062 -0.609375 6.316406 -0.800781 6.859375 -1.03125 L 6.28125 -2.546875 L 2.953125 -2.546875 L 2.328125 -0.890625 L 3.625 -0.71875 L 3.609375 0 L -0.203125 0 L -0.28125 -0.453125 C 0 -0.628906 0.382812 -0.8125 0.875 -1 L 3.96875 -8.59375 L 3.796875 -9.03125 L 5.640625 -9.53125 L 9.15625 -0.859375 Z M 5.875 -3.609375 L 4.609375 -6.90625 L 3.359375 -3.609375 Z M 5.875 -3.609375 "/></g></g></g><g fill="#159bd7" fill-opacity="1"><g transform="translate(253.45401, 223.110312)"><g><path d="M 4.96875 -0.71875 L 4.953125 0 L 0.453125 0 L 0.359375 -0.453125 C 0.628906 -0.628906 1.023438 -0.816406 1.546875 -1.015625 L 1.546875 -8.328125 L 0.46875 -8.484375 L 0.484375 -9.203125 L 4.765625 -9.203125 L 4.859375 -8.75 C 4.503906 -8.550781 4.109375 -8.363281 3.671875 -8.1875 L 3.671875 -0.890625 Z M 4.96875 -0.71875 "/></g></g></g><g fill="#159bd7" fill-opacity="1"><g transform="translate(258.797906, 223.110312)"><g/></g></g><g fill="#159bd7" fill-opacity="1"><g transform="translate(262.50506, 223.110312)"><g><path d="M 3.640625 -3.3125 L 3.640625 -0.953125 L 5.3125 -0.71875 L 5.296875 0 L 0.46875 0 L 0.375 -0.453125 C 0.664062 -0.628906 1.046875 -0.8125 1.515625 -1 L 1.515625 -8.359375 L 0.46875 -8.484375 L 0.484375 -9.203125 L 5 -9.3125 C 6.082031 -9.3125 6.957031 -9.023438 7.625 -8.453125 C 8.289062 -7.878906 8.625 -7.15625 8.625 -6.28125 C 8.625 -5.445312 8.304688 -4.75 7.671875 -4.1875 C 7.035156 -3.632812 6.222656 -3.347656 5.234375 -3.328125 Z M 3.640625 -8.015625 L 3.640625 -4.5625 C 4.015625 -4.488281 4.375 -4.453125 4.71875 -4.453125 C 5.28125 -4.453125 5.707031 -4.628906 6 -4.984375 C 6.289062 -5.347656 6.4375 -5.789062 6.4375 -6.3125 C 6.4375 -6.707031 6.359375 -7.085938 6.203125 -7.453125 C 6.054688 -7.816406 5.847656 -8.070312 5.578125 -8.21875 Z M 3.640625 -8.015625 "/></g></g></g><g fill="#159bd7" fill-opacity="1"><g transform="translate(271.346269, 223.110312)"><g><path d="M 0.203125 -3.375 C 0.203125 -4.425781 0.523438 -5.28125 1.171875 -5.9375 C 1.816406 -6.601562 2.625 -6.9375 3.59375 -6.9375 C 4.5625 -6.9375 5.359375 -6.597656 5.984375 -5.921875 C 6.617188 -5.242188 6.9375 -4.367188 6.9375 -3.296875 C 6.9375 -2.210938 6.625 -1.34375 6 -0.6875 C 5.382812 -0.0390625 4.597656 0.28125 3.640625 0.28125 C 2.660156 0.28125 1.84375 -0.0625 1.1875 -0.75 C 0.53125 -1.445312 0.203125 -2.320312 0.203125 -3.375 Z M 4.203125 -0.9375 C 4.640625 -1.25 4.859375 -1.976562 4.859375 -3.125 C 4.859375 -3.894531 4.742188 -4.523438 4.515625 -5.015625 C 4.296875 -5.503906 3.953125 -5.75 3.484375 -5.75 C 3.203125 -5.75 2.960938 -5.679688 2.765625 -5.546875 C 2.429688 -5.097656 2.265625 -4.378906 2.265625 -3.390625 C 2.265625 -2.648438 2.382812 -2.039062 2.625 -1.5625 C 2.875 -1.09375 3.242188 -0.859375 3.734375 -0.859375 C 3.898438 -0.859375 4.054688 -0.882812 4.203125 -0.9375 Z M 4.203125 -0.9375 "/></g></g></g><g fill="#159bd7" fill-opacity="1"><g transform="translate(278.550737, 223.110312)"><g><path d="M 4.703125 -6.71875 C 4.921875 -6.800781 5.148438 -6.84375 5.390625 -6.84375 C 5.878906 -6.84375 6.273438 -6.703125 6.578125 -6.421875 C 6.523438 -5.390625 6.351562 -4.507812 6.0625 -3.78125 L 5 -3.78125 L 4.71875 -5.34375 C 4.195312 -4.957031 3.722656 -4.503906 3.296875 -3.984375 L 3.296875 -1.15625 C 3.953125 -1.03125 4.457031 -0.875 4.8125 -0.6875 L 4.75 0 L 0.28125 0 L 0.234375 -0.46875 C 0.492188 -0.625 0.835938 -0.773438 1.265625 -0.921875 L 1.265625 -5.625 L 0.21875 -5.75 L 0.125 -6.421875 C 0.925781 -6.722656 1.753906 -6.882812 2.609375 -6.90625 L 3.296875 -6.296875 L 3.296875 -5.140625 Z M 4.703125 -6.71875 "/></g></g></g><g fill="#159bd7" fill-opacity="1"><g transform="translate(285.153663, 223.110312)"><g><path d="M 3.671875 -1.359375 C 3.929688 -1.359375 4.328125 -1.414062 4.859375 -1.53125 L 5 -0.859375 L 2.859375 0.21875 C 2.453125 0.238281 2.066406 0.109375 1.703125 -0.171875 C 1.335938 -0.460938 1.148438 -0.789062 1.140625 -1.15625 L 1.140625 -5.203125 L 0.171875 -5.1875 L 0.109375 -5.921875 C 0.460938 -6.171875 0.84375 -6.394531 1.25 -6.59375 L 1.9375 -8.40625 L 2.890625 -8.40625 L 3.125 -6.59375 L 5.046875 -6.59375 L 5.078125 -5.984375 L 4.390625 -5.171875 L 3.171875 -5.171875 L 3.171875 -2 C 3.171875 -1.757812 3.207031 -1.59375 3.28125 -1.5 C 3.351562 -1.40625 3.484375 -1.359375 3.671875 -1.359375 Z M 3.671875 -1.359375 "/></g></g></g><g fill="#159bd7" fill-opacity="1"><g transform="translate(290.497558, 223.110312)"><g><path d="M 7.484375 -0.671875 L 5.78125 0.21875 C 5.550781 0.207031 5.316406 0.109375 5.078125 -0.078125 C 4.835938 -0.265625 4.644531 -0.5 4.5 -0.78125 L 2.984375 0.1875 L 2.546875 0.203125 C 1.960938 0.203125 1.476562 0.03125 1.09375 -0.3125 C 0.707031 -0.65625 0.515625 -1.066406 0.515625 -1.546875 C 0.515625 -2.222656 0.878906 -2.753906 1.609375 -3.140625 L 4.28125 -3.21875 L 4.28125 -4.46875 C 4.28125 -5.207031 4.0625 -5.679688 3.625 -5.890625 C 3.195312 -5.859375 2.847656 -5.796875 2.578125 -5.703125 L 2.328125 -4.203125 L 1.140625 -4.15625 C 0.941406 -4.664062 0.84375 -5.226562 0.84375 -5.84375 L 0.859375 -6.125 C 1.367188 -6.34375 1.984375 -6.539062 2.703125 -6.71875 C 3.421875 -6.894531 3.960938 -6.984375 4.328125 -6.984375 C 4.679688 -6.984375 5.019531 -6.890625 5.34375 -6.703125 C 5.675781 -6.515625 5.945312 -6.269531 6.15625 -5.96875 C 6.257812 -5.789062 6.316406 -5.4375 6.328125 -4.90625 L 6.328125 -1.546875 C 6.328125 -1.328125 6.441406 -1.21875 6.671875 -1.21875 L 7.359375 -1.296875 Z M 2.84375 -1.03125 C 3.207031 -1.039062 3.6875 -1.160156 4.28125 -1.390625 L 4.28125 -2.390625 L 3.921875 -2.40625 C 3.003906 -2.40625 2.546875 -2.15625 2.546875 -1.65625 C 2.546875 -1.394531 2.644531 -1.1875 2.84375 -1.03125 Z M 2.84375 -1.03125 "/></g></g></g><g fill="#159bd7" fill-opacity="1"><g transform="translate(298.107715, 223.110312)"><g><path d="M 3.296875 -1.109375 C 3.734375 -0.960938 4.078125 -0.820312 4.328125 -0.6875 L 4.265625 0 L 0.25 0 L 0.203125 -0.46875 C 0.484375 -0.632812 0.835938 -0.789062 1.265625 -0.9375 L 1.265625 -9.015625 L 0.21875 -9.125 L 0.125 -9.796875 C 0.925781 -10.109375 1.753906 -10.273438 2.609375 -10.296875 L 3.296875 -9.671875 Z M 3.296875 -1.109375 "/></g></g></g><g clip-path="url(#44b4eea6ee)"><path fill="#159bd7" d="M 236.738281 211.519531 C 236.742188 211.519531 236.742188 211.519531 236.746094 211.519531 C 236.949219 211.519531 237.136719 211.605469 237.273438 211.738281 C 237.40625 211.875 237.492188 212.0625 237.492188 212.269531 L 237.492188 214.894531 L 240.117188 214.894531 C 240.324219 214.894531 240.511719 214.980469 240.648438 215.113281 C 240.78125 215.25 240.867188 215.4375 240.867188 215.640625 C 240.867188 215.644531 240.867188 215.644531 240.867188 215.648438 C 240.867188 215.851562 240.78125 216.039062 240.648438 216.175781 C 240.511719 216.308594 240.324219 216.394531 240.117188 216.394531 L 237.492188 216.394531 L 237.492188 219.019531 C 237.492188 219.226562 237.40625 219.414062 237.273438 219.550781 C 237.136719 219.683594 236.949219 219.769531 236.746094 219.769531 C 236.742188 219.769531 236.742188 219.769531 236.738281 219.769531 C 236.535156 219.769531 236.347656 219.683594 236.210938 219.550781 C 236.078125 219.414062 235.992188 219.226562 235.992188 219.019531 L 235.992188 216.394531 L 233.367188 216.394531 C 233.160156 216.394531 232.972656 216.308594 232.835938 216.175781 C 232.703125 216.039062 232.617188 215.851562 232.617188 215.648438 C 232.617188 215.644531 232.617188 215.644531 232.617188 215.640625 C 232.617188 215.4375 232.703125 215.25 232.835938 215.113281 C 232.972656 214.980469 233.160156 214.894531 233.367188 214.894531 L 235.992188 214.894531 L 235.992188 212.269531 C 235.992188 212.0625 236.078125 211.875 236.210938 211.738281 C 236.347656 211.605469 236.535156 211.519531 236.738281 211.519531 " fill-opacity="1" fill-rule="nonzero"/></g><g fill="#159bd7" fill-opacity="1"><g transform="translate(170.860848, 202.37817)"><g><path d="M 3 -25.25 L 14.46875 -25.25 C 17.207031 -25.25 19.628906 -24.722656 21.734375 -23.671875 C 23.835938 -22.628906 25.472656 -21.160156 26.640625 -19.265625 C 27.804688 -17.367188 28.390625 -15.15625 28.390625 -12.625 C 28.390625 -10.101562 27.804688 -7.890625 26.640625 -5.984375 C 25.472656 -4.085938 23.835938 -2.613281 21.734375 -1.5625 C 19.628906 -0.519531 17.207031 0 14.46875 0 L 3 0 Z M 14.171875 -4.796875 C 16.703125 -4.796875 18.71875 -5.5 20.21875 -6.90625 C 21.726562 -8.3125 22.484375 -10.21875 22.484375 -12.625 C 22.484375 -15.03125 21.726562 -16.9375 20.21875 -18.34375 C 18.71875 -19.75 16.703125 -20.453125 14.171875 -20.453125 L 8.84375 -20.453125 L 8.84375 -4.796875 Z M 14.171875 -4.796875 "/></g></g></g><g fill="#159bd7" fill-opacity="1"><g transform="translate(200.664557, 202.37817)"><g><path d="M 3 -25.25 L 8.84375 -25.25 L 8.84375 0 L 3 0 Z M 3 -25.25 "/></g></g></g><g fill="#159bd7" fill-opacity="1"><g transform="translate(212.499441, 202.37817)"><g><path d="M 15.078125 0.4375 C 12.503906 0.4375 10.175781 -0.117188 8.09375 -1.234375 C 6.019531 -2.359375 4.382812 -3.910156 3.1875 -5.890625 C 2 -7.878906 1.40625 -10.125 1.40625 -12.625 C 1.40625 -15.125 2 -17.363281 3.1875 -19.34375 C 4.382812 -21.332031 6.019531 -22.882812 8.09375 -24 C 10.175781 -25.125 12.515625 -25.6875 15.109375 -25.6875 C 17.304688 -25.6875 19.285156 -25.300781 21.046875 -24.53125 C 22.816406 -23.757812 24.300781 -22.65625 25.5 -21.21875 L 21.75 -17.75 C 20.039062 -19.71875 17.925781 -20.703125 15.40625 -20.703125 C 13.84375 -20.703125 12.445312 -20.359375 11.21875 -19.671875 C 9.988281 -18.992188 9.03125 -18.039062 8.34375 -16.8125 C 7.664062 -15.582031 7.328125 -14.1875 7.328125 -12.625 C 7.328125 -11.0625 7.664062 -9.664062 8.34375 -8.4375 C 9.03125 -7.21875 9.988281 -6.265625 11.21875 -5.578125 C 12.445312 -4.890625 13.84375 -4.546875 15.40625 -4.546875 C 17.925781 -4.546875 20.039062 -5.546875 21.75 -7.546875 L 25.5 -4.078125 C 24.300781 -2.609375 22.8125 -1.488281 21.03125 -0.71875 C 19.25 0.0507812 17.265625 0.4375 15.078125 0.4375 Z M 15.078125 0.4375 "/></g></g></g><g fill="#159bd7" fill-opacity="1"><g transform="translate(238.946782, 202.37817)"><g/></g></g><g fill="#ffffff" fill-opacity="1"><g transform="translate(127.000045, 148.921893)"><g><path d="M 1.09375 -9.171875 L 5.25 -9.171875 C 6.25 -9.171875 7.128906 -8.976562 7.890625 -8.59375 C 8.648438 -8.21875 9.242188 -7.679688 9.671875 -6.984375 C 10.097656 -6.296875 10.3125 -5.492188 10.3125 -4.578125 C 10.3125 -3.660156 10.097656 -2.859375 9.671875 -2.171875 C 9.242188 -1.484375 8.648438 -0.945312 7.890625 -0.5625 C 7.128906 -0.1875 6.25 0 5.25 0 L 1.09375 0 Z M 5.140625 -1.734375 C 6.054688 -1.734375 6.785156 -1.988281 7.328125 -2.5 C 7.878906 -3.007812 8.15625 -3.703125 8.15625 -4.578125 C 8.15625 -5.453125 7.878906 -6.144531 7.328125 -6.65625 C 6.785156 -7.164062 6.054688 -7.421875 5.140625 -7.421875 L 3.203125 -7.421875 L 3.203125 -1.734375 Z M 5.140625 -1.734375 "/></g></g></g><g fill="#ffffff" fill-opacity="1"><g transform="translate(137.802546, 148.921893)"><g><path d="M 1.09375 -9.171875 L 3.203125 -9.171875 L 3.203125 0 L 1.09375 0 Z M 1.09375 -9.171875 "/></g></g></g><g fill="#ffffff" fill-opacity="1"><g transform="translate(142.092157, 148.921893)"><g><path d="M 5.46875 0.15625 C 4.539062 0.15625 3.695312 -0.046875 2.9375 -0.453125 C 2.1875 -0.859375 1.59375 -1.421875 1.15625 -2.140625 C 0.726562 -2.859375 0.515625 -3.671875 0.515625 -4.578125 C 0.515625 -5.484375 0.726562 -6.296875 1.15625 -7.015625 C 1.59375 -7.742188 2.1875 -8.3125 2.9375 -8.71875 C 3.695312 -9.125 4.546875 -9.328125 5.484375 -9.328125 C 6.273438 -9.328125 6.992188 -9.1875 7.640625 -8.90625 C 8.285156 -8.625 8.820312 -8.222656 9.25 -7.703125 L 7.890625 -6.4375 C 7.273438 -7.15625 6.507812 -7.515625 5.59375 -7.515625 C 5.019531 -7.515625 4.507812 -7.390625 4.0625 -7.140625 C 3.625 -6.890625 3.28125 -6.539062 3.03125 -6.09375 C 2.78125 -5.65625 2.65625 -5.148438 2.65625 -4.578125 C 2.65625 -4.015625 2.78125 -3.507812 3.03125 -3.0625 C 3.28125 -2.613281 3.625 -2.265625 4.0625 -2.015625 C 4.507812 -1.773438 5.019531 -1.65625 5.59375 -1.65625 C 6.507812 -1.65625 7.273438 -2.015625 7.890625 -2.734375 L 9.25 -1.484375 C 8.820312 -0.953125 8.285156 -0.546875 7.640625 -0.265625 C 6.992188 0.015625 6.269531 0.15625 5.46875 0.15625 Z M 5.46875 0.15625 "/></g></g></g><g fill="#ffffff" fill-opacity="1"><g transform="translate(151.678403, 148.921893)"><g><path d="M 7.125 -1.96875 L 2.875 -1.96875 L 2.0625 0 L -0.125 0 L 3.96875 -9.171875 L 6.0625 -9.171875 L 10.15625 0 L 7.9375 0 Z M 6.453125 -3.578125 L 5 -7.078125 L 3.546875 -3.578125 Z M 6.453125 -3.578125 "/></g></g></g><g fill="#ffffff" fill-opacity="1"><g transform="translate(161.696217, 148.921893)"><g><path d="M 0.6875 -9.171875 L 3.109375 -9.171875 L 2.703125 -3.1875 L 1.09375 -3.1875 Z M 1.90625 0.109375 C 1.539062 0.109375 1.238281 -0.00390625 1 -0.234375 C 0.757812 -0.472656 0.640625 -0.757812 0.640625 -1.09375 C 0.640625 -1.414062 0.753906 -1.6875 0.984375 -1.90625 C 1.222656 -2.132812 1.53125 -2.25 1.90625 -2.25 C 2.269531 -2.25 2.566406 -2.132812 2.796875 -1.90625 C 3.035156 -1.6875 3.15625 -1.414062 3.15625 -1.09375 C 3.15625 -0.757812 3.035156 -0.472656 2.796875 -0.234375 C 2.554688 -0.00390625 2.257812 0.109375 1.90625 0.109375 Z M 1.90625 0.109375 "/></g></g></g></svg>